<svg width="17" height="17" viewBox="0 0 17 17" fill="none" xmlns="http://www.w3.org/2000/svg">
<path fill-rule="evenodd" clip-rule="evenodd" d="M9.0109 3.18272C9.17288 3.24983 9.32004 3.34821 9.44399 3.47222L13.556 7.58355C13.6801 7.70751 13.7786 7.85471 13.8457 8.01675C13.9129 8.17879 13.9475 8.35247 13.9475 8.52788C13.9475 8.70329 13.9129 8.87698 13.8457 9.03902C13.7786 9.20106 13.6801 9.34826 13.556 9.47222L9.44399 13.5836C9.32004 13.7076 9.17288 13.8059 9.0109 13.8731C8.84893 13.9402 8.67532 13.9747 8.49999 13.9747C8.32466 13.9747 8.15104 13.9402 7.98907 13.8731C7.8271 13.8059 7.67993 13.7076 7.55599 13.5836L3.44399 9.47222C3.31988 9.34826 3.22142 9.20106 3.15424 9.03902C3.08707 8.87698 3.05249 8.70329 3.05249 8.52788C3.05249 8.35247 3.08707 8.17879 3.15424 8.01675C3.22142 7.85471 3.31988 7.70751 3.44399 7.58355L7.55599 3.47222C7.67993 3.34821 7.8271 3.24983 7.98907 3.18272C8.15104 3.1156 8.32466 3.08105 8.49999 3.08105C8.67532 3.08105 8.84893 3.1156 9.0109 3.18272ZM8.02858 9.66562C8.1536 9.79064 8.32317 9.86088 8.49998 9.86088C8.6768 9.86088 8.84636 9.79064 8.97139 9.66562C9.09641 9.54059 9.16665 9.37102 9.16665 9.19421V5.86088C9.16665 5.68407 9.09641 5.5145 8.97139 5.38948C8.84636 5.26445 8.6768 5.19421 8.49998 5.19421C8.32317 5.19421 8.1536 5.26445 8.02858 5.38948C7.90356 5.5145 7.83332 5.68407 7.83332 5.86088V9.19421C7.83332 9.37102 7.90356 9.54059 8.02858 9.66562ZM8.02858 11.6656C8.1536 11.7906 8.32317 11.8609 8.49998 11.8609C8.6768 11.8609 8.84636 11.7906 8.97139 11.6656C9.09641 11.5406 9.16665 11.371 9.16665 11.1942C9.16665 11.0174 9.09641 10.8478 8.97139 10.7228C8.84636 10.5978 8.6768 10.5275 8.49998 10.5275C8.32317 10.5275 8.1536 10.5978 8.02858 10.7228C7.90356 10.8478 7.83332 11.0174 7.83332 11.1942C7.83332 11.371 7.90356 11.5406 8.02858 11.6656Z" fill="#DE350B"/>
</svg>
