<svg width="24" height="25" viewBox="0 0 24 25" fill="none" xmlns="http://www.w3.org/2000/svg">
<rect width="24" height="24" transform="translate(0 0.527344)" fill="white" fill-opacity="0.01"/>
<path fill-rule="evenodd" clip-rule="evenodd" d="M11.983 16.5113C10.9222 16.5106 9.90503 16.0889 9.15474 15.339C8.40445 14.5891 7.98232 13.5722 7.981 12.5113C7.981 10.3053 9.776 8.51134 11.983 8.51134C13.0438 8.51214 14.061 8.93376 14.8113 9.68367C15.5615 10.4336 15.9837 11.4505 15.985 12.5113C15.985 14.7173 14.19 16.5113 11.983 16.5113ZM12 4.52734C6.48 4.52734 2 9.36734 2 12.5273C2 15.6133 6.577 20.5273 12 20.5273C17.423 20.5273 22 15.6133 22 12.5273C22 9.36734 17.519 4.52734 12 4.52734Z" fill="#42526E"/>
<path d="M12 14.5273C13.1046 14.5273 14 13.6319 14 12.5273C14 11.4228 13.1046 10.5273 12 10.5273C10.8954 10.5273 10 11.4228 10 12.5273C10 13.6319 10.8954 14.5273 12 14.5273Z" fill="#42526E"/>
</svg>
