<svg width="24" height="24" viewBox="0 0 24 24" fill="none" xmlns="http://www.w3.org/2000/svg">
<rect width="24" height="24" fill="white" fill-opacity="0.01"/>
<path d="M12 10.586L6.70704 5.29296C6.51844 5.1108 6.26584 5.01001 6.00364 5.01228C5.74144 5.01456 5.49063 5.11973 5.30522 5.30514C5.11981 5.49055 5.01465 5.74136 5.01237 6.00356C5.01009 6.26575 5.11088 6.51836 5.29304 6.70696L10.586 12L5.29304 17.293C5.11088 17.4816 5.01009 17.7342 5.01237 17.9964C5.01465 18.2586 5.11981 18.5094 5.30522 18.6948C5.49063 18.8802 5.74144 18.9854 6.00364 18.9876C6.26584 18.9899 6.51844 18.8891 6.70704 18.707L12 13.414L17.293 18.707C17.4816 18.8891 17.7342 18.9899 17.9964 18.9876C18.2586 18.9854 18.5095 18.8802 18.6949 18.6948C18.8803 18.5094 18.9854 18.2586 18.9877 17.9964C18.99 17.7342 18.8892 17.4816 18.707 17.293L13.414 12L18.707 6.70696C18.8026 6.61471 18.8787 6.50437 18.9311 6.38236C18.9836 6.26036 19.0111 6.12914 19.0123 5.99636C19.0134 5.86358 18.9881 5.7319 18.9379 5.60901C18.8876 5.48611 18.8133 5.37446 18.7194 5.28056C18.6255 5.18667 18.5139 5.11242 18.391 5.06214C18.2681 5.01186 18.1364 4.98655 18.0036 4.98771C17.8709 4.98886 17.7396 5.01645 17.6176 5.06886C17.4956 5.12127 17.3853 5.19745 17.293 5.29296L12 10.586Z" fill="#42526E"/>
</svg>
